<svg data-v-0dd9719b="" version="1.0" xmlns="http://www.w3.org/2000/svg" xmlns:xlink="http://www.w3.org/1999/xlink" width="100%" height="100%" viewBox="0 0 340.000000 250.000000" preserveAspectRatio="xMidYMid meet" color-interpolation-filters="sRGB" style="margin: auto;"> <rect data-v-0dd9719b="" x="0" y="0" width="100%" height="100%" fill="#fff" fill-opacity="1" class="background"></rect> <rect data-v-0dd9719b="" x="0" y="0" width="100%" height="100%" fill="url(#watermark)" fill-opacity="1" class="watermarklayer"></rect> <g data-v-0dd9719b="" fill="#333" class="icon-text-wrapper icon-svg-group iconsvg" transform="translate(48.868865966796875,95.00060081481934)"><g class="iconsvg-imagesvg" transform="translate(0,0)"><g><rect fill="#333" fill-opacity="0" stroke-width="2" x="0" y="0" width="60" height="59.99880002399953" class="image-rect"></rect> <svg x="0" y="0" width="60" height="59.99880002399953" filtersec="colorsb9966277751" class="image-svg-svg primary" style="overflow: visible;"><svg xmlns="http://www.w3.org/2000/svg" viewBox="0.010458681732416153 0.016240527853369713 131.463134765625 131.46051025390625"><title>资源 130</title><path d="M83.11 102.25a14.75 14.75 0 1 0 0-29.5H50.56a28.78 28.78 0 0 1 0-57.56h57.2a65.74 65.74 0 0 0-96.69 87.06z" fill="#009fe8"></path><path d="M120.39 29.22H50.56a14.75 14.75 0 1 0 0 29.5h32.55a28.78 28.78 0 1 1 0 57.56h-59.4a65.73 65.73 0 0 0 96.68-87.06z" fill="#333"></path></svg></svg> <!----></g></g> <g transform="translate(67,6.045650482177734)"><g data-gra="path-name" fill-rule="" class="tp-name iconsvg-namesvg" transform="translate(0,0)"><g transform="scale(1)"><g><path d="M29.16 0.25L11.05 0.25Q10.12 0.25 9.54-0.32 8.96-0.9 8.96-1.84L8.96-1.84 8.96-11.48Q6.84-8.68 4.14-6.3L4.14-6.3Q3.02-5.4 2.12-6.37L2.12-6.37Q1.19-7.42 2.41-8.42L2.41-8.42Q5.9-11.41 8.71-15.95L8.71-15.95Q11.23-20.02 12.78-24.73L12.78-24.73 3.92-24.73Q2.63-24.73 2.63-26.06L2.63-26.06Q2.63-27.36 3.92-27.36L3.92-27.36 32.15-27.36Q33.44-27.36 33.44-26.06L33.44-26.06Q33.44-24.73 32.15-24.73L32.15-24.73 15.8-24.73Q14.04-19.73 11.52-15.37L11.52-15.37 29.16-15.37Q30.1-15.37 30.67-14.8 31.25-14.22 31.25-13.28L31.25-13.28 31.25-1.84Q31.25-0.9 30.67-0.32 30.1 0.25 29.16 0.25L29.16 0.25ZM12.35-2.34L12.35-2.34 27.76-2.34Q28.51-2.34 28.51-3.1L28.51-3.1 28.51-12.06Q28.51-12.82 27.76-12.82L27.76-12.82 11.59-12.82 11.59-3.1Q11.59-2.34 12.35-2.34ZM51.16 2.81Q50.8 2.84 50 2.81L50 2.81Q49.57 2.81 49.36 2.81L49.36 2.81Q48.06 2.74 47.77 1.76L47.77 1.76Q47.3 0.22 49.43 0.32L49.43 0.32Q49.86 0.36 50.62 0.36L50.62 0.36Q52.27 0.36 53.06-0.32L53.06-0.32Q54.07-1.08 54.43-2.88L54.43-2.88Q54.79-4.75 54.25-6.98L54.25-6.98Q51.59-4.75 47.84-2.66L47.84-2.66Q44.21-0.61 40.61 0.72L40.61 0.72Q39.56 1.08 38.99 0.14L38.99 0.14Q38.56-0.54 38.74-0.95 38.92-1.37 39.74-1.62L39.74-1.62Q43.52-2.88 47.3-4.97L47.3-4.97Q51.12-7.09 53.46-9.32L53.46-9.32Q53.06-10.3 52.24-11.63L52.24-11.63Q50.22-10.15 47.34-8.57L47.34-8.57Q44.5-7.06 41.87-6.01L41.87-6.01Q40.86-5.62 40.28-6.48L40.28-6.48Q39.82-7.16 39.98-7.54 40.14-7.92 40.93-8.17L40.93-8.17Q43.63-9.07 46.4-10.48L46.4-10.48Q49.25-11.88 51.01-13.25L51.01-13.25Q50.18-14.15 49.36-14.87L49.36-14.87Q45.9-13.1 41.65-11.77L41.65-11.77Q40.68-11.45 40.07-12.28L40.07-12.28Q39.17-13.54 40.79-13.97L40.79-13.97Q47.41-15.8 51.55-18.54L51.55-18.54 45.11-18.54Q43.96-18.54 43.96-19.69 43.96-20.84 45.11-20.84L45.11-20.84 62.71-20.84Q63.86-20.84 63.86-19.69 63.86-18.54 62.71-18.54L62.71-18.54 57.6-18.54Q58.39-15.59 59.87-12.53L59.87-12.53Q63.04-14.51 65.52-16.6L65.52-16.6Q66.35-17.35 67.28-16.52L67.28-16.52Q68.36-15.55 67.28-14.65L67.28-14.65Q64.87-12.82 60.98-10.48L60.98-10.48Q64.08-5.51 68.44-3.17L68.44-3.17Q70.13-2.41 69.08-1.04L69.08-1.04Q68.33-0.04 67.14-0.65L67.14-0.65Q58.61-5.4 55.26-18.54L55.26-18.54 55.19-18.54Q53.6-17.21 51.55-16.02L51.55-16.02Q54.76-13.21 56.23-9.36L56.23-9.36Q57.53-5.9 57.13-2.74L57.13-2.74Q56.74 0.36 54.94 1.62L54.94 1.62Q54.07 2.3 53.21 2.56L53.21 2.56Q52.38 2.81 51.16 2.81L51.16 2.81ZM40.68-19.84L40.68-19.84Q39.38-19.84 39.38-21.13L39.38-21.13 39.38-24.84Q39.38-25.78 39.96-26.35 40.54-26.93 41.47-26.93L41.47-26.93 52.63-26.93 52.63-28.76Q52.63-30.1 53.96-30.1L53.96-30.1Q55.3-30.1 55.3-28.76L55.3-28.76 55.3-26.93 66.74-26.93Q67.68-26.93 68.26-26.35 68.83-25.78 68.83-24.84L68.83-24.84 68.83-21.17Q68.83-19.84 67.5-19.84L67.5-19.84Q66.13-19.84 66.13-21.17L66.13-21.17 66.13-23.69Q66.13-24.44 65.38-24.44L65.38-24.44 42.73-24.44Q41.98-24.44 41.98-23.69L41.98-23.69 41.98-21.13Q41.98-19.84 40.68-19.84ZM76.36 1.4Q75.67 2.77 74.48 1.98L74.48 1.98Q73.44 1.26 74.09 0L74.09 0Q76.61-5.54 76.61-16.2L76.61-16.2 76.61-23.4Q76.61-24.34 77.18-24.91 77.76-25.49 78.7-25.49L78.7-25.49 89.68-25.49 89.68-28.76Q89.68-30.1 91.04-30.1L91.04-30.1Q92.38-30.1 92.38-28.76L92.38-28.76 92.38-25.49 104.76-25.49Q106.02-25.49 106.02-24.23L106.02-24.23Q106.02-22.93 104.76-22.93L104.76-22.93 79.96-22.93Q79.2-22.93 79.2-22.18L79.2-22.18 79.2-16.2Q79.2-4.93 76.36 1.4L76.36 1.4ZM104.8 1.62L81 1.62Q79.74 1.62 79.74 0.36L79.74 0.36Q79.74-0.94 81-0.94L81-0.94 91.44-0.94 91.44-11.77 83.41-11.77Q82.12-11.77 82.12-13.07 82.12-14.36 83.41-14.36L83.41-14.36 91.44-14.36 91.44-20.56Q91.44-21.89 92.81-21.89L92.81-21.89Q94.14-21.89 94.14-20.56L94.14-20.56 94.14-14.36 102.96-14.36Q104.26-14.36 104.26-13.07 104.26-11.77 102.96-11.77L102.96-11.77 94.14-11.77 94.14-0.94 104.8-0.94Q106.06-0.94 106.06 0.36L106.06 0.36Q106.06 1.62 104.8 1.62L104.8 1.62ZM136.73 2.74L136.73 2.74Q135 2.74 134.68 1.62L134.68 1.62Q134.21 0.04 136.48 0.11L136.48 0.11Q137.27 0.11 138.02 0.11L138.02 0.11Q138.67 0.07 138.67-0.61L138.67-0.61 138.67-25.2Q138.67-25.96 137.92-25.96L137.92-25.96 126.25-25.96Q125.5-25.96 125.5-25.2L125.5-25.2 125.5 1.48Q125.5 2.7 124.27 2.7L124.27 2.7Q123.05 2.7 123.05 1.48L123.05 1.48 123.05-26.35Q123.05-27.29 123.62-27.86 124.2-28.44 125.14-28.44L125.14-28.44 139.14-28.44Q140.08-28.44 140.65-27.86 141.23-27.29 141.23-26.35L141.23-26.35 141.23-0.58Q141.23 1.66 139.97 2.23L139.97 2.23Q139.07 2.66 136.73 2.74ZM116.21 2.7L116.21 2.7Q114.88 2.7 114.88 1.4L114.88 1.4 114.88-14.4Q113.4-9.29 111.67-6.01L111.67-6.01Q111.17-5.18 110.81-5.24 110.45-5.29 109.94-6.19L109.94-6.19Q109.66-6.73 109.66-7.06L109.66-7.06Q109.62-7.42 109.94-7.88L109.94-7.88Q111.35-10.19 112.64-13.79L112.64-13.79Q113.9-17.24 114.62-20.7L114.62-20.7 111.24-20.7Q109.98-20.7 109.98-21.96 109.98-23.22 111.24-23.22L111.24-23.22 114.88-23.22 114.88-28.84Q114.88-30.13 116.21-30.13L116.21-30.13Q117.5-30.13 117.5-28.84L117.5-28.84 117.5-23.22 120.49-23.22Q121.75-23.22 121.75-21.96 121.75-20.7 120.49-20.7L120.49-20.7 117.5-20.7 117.5-19.33Q119.45-16.38 121.82-12.06L121.82-12.06Q122.04-11.7 121.97-11.45L121.97-11.45Q121.9-11.27 121.57-10.91L121.57-10.91 121.5-10.8Q120.89-10.12 120.6-10.08L120.6-10.08Q120.24-10.04 119.92-10.8L119.92-10.8Q119.41-11.92 117.97-14.72L117.97-14.72Q117.65-15.37 117.5-15.7L117.5-15.7 117.5 1.4Q117.5 2.7 116.21 2.7ZM134.17-5.44L129.96-5.44Q129.02-5.44 128.45-6.01 127.87-6.59 127.87-7.52L127.87-7.52 127.87-14.51Q127.87-15.44 128.45-16.02 129.02-16.6 129.96-16.6L129.96-16.6 134.28-16.6Q135.18-16.6 135.72-16.06 136.26-15.52 136.26-14.62L136.26-14.62 136.26-7.52Q136.26-6.59 135.68-6.01 135.11-5.44 134.17-5.44L134.17-5.44ZM130.57-7.42L130.57-7.42 133.63-7.42Q134.39-7.42 134.39-8.17L134.39-8.17 134.39-13.9Q134.39-14.65 133.63-14.65L133.63-14.65 130.57-14.65Q129.82-14.65 129.82-13.9L129.82-13.9 129.82-8.17Q129.82-7.42 130.57-7.42ZM135.94-20.2L128.3-20.2Q127.19-20.2 127.19-21.31 127.19-22.43 128.3-22.43L128.3-22.43 135.94-22.43Q137.05-22.43 137.05-21.31 137.05-20.2 135.94-20.2L135.94-20.2ZM171.04 2.66L171.04 2.66Q169.31 2.66 168.91 1.58L168.91 1.58Q168.62 0.76 169.24 0.36L169.24 0.36Q169.78 0 170.82 0.04L170.82 0.04Q173.05 0.11 173.74 0.04L173.74 0.04Q174.2 0.04 174.38-0.14 174.56-0.32 174.56-0.83L174.56-0.83 174.56-25.27Q174.56-26.03 173.81-26.03L173.81-26.03 163.48-26.03Q162.25-26.03 162.25-27.29L162.25-27.29Q162.25-28.51 163.48-28.51L163.48-28.51 174.89-28.51Q175.82-28.51 176.4-27.94 176.98-27.36 176.98-26.42L176.98-26.42 176.98-0.83Q176.98 0.5 176.63 1.17 176.29 1.84 175.46 2.16L175.46 2.16Q174.35 2.59 171.04 2.66ZM155.74 2.56L155.74 2.56Q154.55 2.56 154.55 1.37L154.55 1.37 154.55-21.46Q154.55-22.64 155.74-22.64L155.74-22.64Q156.92-22.64 156.92-21.46L156.92-21.46 156.92 1.37Q156.92 2.56 155.74 2.56ZM149.26 0.9Q148.72 2.16 147.46 1.4L147.46 1.4Q146.34 0.76 146.84-0.29L146.84-0.29Q147.6-1.8 148.79-4.54L148.79-4.54Q149.98-7.31 150.73-9.36L150.73-9.36Q151.24-10.73 152.46-9.9L152.46-9.9Q153.36-9.29 153-8.32L153-8.32Q151.31-3.67 149.26 0.9L149.26 0.9ZM171.25-2.3L160.02-2.3Q158.87-2.3 158.87-3.49L158.87-3.49Q158.87-4.64 160.02-4.64L160.02-4.64 164.52-4.64 164.52-11.02 160.99-11.02Q159.84-11.02 159.84-12.2L159.84-12.2Q159.84-13.36 160.99-13.36L160.99-13.36 164.52-13.36 164.52-19.04 160.52-19.04Q159.34-19.04 159.34-20.23 159.34-21.42 160.52-21.42L160.52-21.42 170.86-21.42Q172.04-21.42 172.04-20.23 172.04-19.04 170.86-19.04L170.86-19.04 166.97-19.04 166.97-13.36 170.32-13.36Q171.47-13.36 171.47-12.2L171.47-12.2Q171.47-11.02 170.32-11.02L170.32-11.02 166.97-11.02 166.97-4.64 171.25-4.64Q172.4-4.64 172.4-3.49L172.4-3.49Q172.4-2.3 171.25-2.3L171.25-2.3ZM151.45-15.08Q151.02-14.98 150.48-15.41L150.48-15.41Q149.08-16.45 146.92-17.57L146.92-17.57Q145.66-18.22 146.45-19.33L146.45-19.33Q147.06-20.16 147.96-19.8L147.96-19.8Q149.36-19.15 150.37-18.61L150.37-18.61Q151.13-18.18 152.17-17.5L152.17-17.5Q153-16.81 152.28-15.8L152.28-15.8Q151.85-15.19 151.45-15.08L151.45-15.08ZM153.72-24.7Q152.82-23.51 151.85-24.44L151.85-24.44Q151.09-25.02 150.26-25.6L150.26-25.6Q149.8-25.92 148.82-26.53L148.82-26.53Q148.39-26.78 148.18-26.93L148.18-26.93Q146.95-27.58 147.82-28.66L147.82-28.66Q148.46-29.45 149.36-29.02L149.36-29.02Q151.78-27.83 153.65-26.32L153.65-26.32Q154.08-25.92 154.1-25.56 154.12-25.2 153.72-24.7L153.72-24.7ZM160.45-24.16Q159.91-23.76 159.53-23.81 159.16-23.87 158.83-24.41L158.83-24.41Q158.18-25.38 157.57-26.14L157.57-26.14Q156.92-27.04 155.92-28.15L155.92-28.15Q155.2-29.05 156.17-29.7L156.17-29.7Q157-30.24 157.64-29.56L157.64-29.56Q159.62-27.43 160.88-25.6L160.88-25.6Q161.35-24.8 160.45-24.16L160.45-24.16Z" transform="translate(-1.7177209854125977, 30.1299991607666)"></path></g> <!----> <!----> <!----> <!----> <!----> <!----> <!----></g></g> <g data-gra="path-slogan" fill-rule="" class="tp-slogan iconsvg-slogansvg" fill="#333" transform="translate(5,38.95499801635742)"><rect x="0" height="1" y="3.9750003814697266" width="4.650306701660156"></rect> <rect height="1" y="3.9750003814697266" width="4.650306701660156" x="160.6119613647461"></rect> <g transform="translate(7.650306701660156,0)"><g transform="scale(1)"><path d="M7.17-6.09L7.17-6.09L6.09-6.09Q6-7.73 3.94-7.83L3.94-7.83Q2.02-7.78 2.02-6.33L2.02-6.33Q2.02-5.39 3.05-5.25L3.05-5.25L5.48-4.69Q7.41-4.22 7.41-2.34L7.41-2.34Q7.36 0.05 4.03 0.14L4.03 0.14Q2.20 0.14 1.45-0.61L1.45-0.61Q0.52-1.31 0.56-2.77L0.56-2.77L1.69-2.77Q1.73-0.80 4.03-0.75L4.03-0.75Q6.28-0.80 6.33-2.20L6.33-2.20Q6.52-3.38 4.45-3.75L4.45-3.75L2.67-4.13Q0.84-4.64 0.84-6.19L0.84-6.19Q0.98-8.72 3.84-8.81L3.84-8.81Q7.08-8.81 7.17-6.09ZM10.03-5.06L14.53-5.06L14.53-8.58L15.70-8.58L15.70 0L14.53 0L14.53-3.98L10.03-3.98L10.03 0L8.86 0L8.86-8.58L10.03-8.58L10.03-5.06ZM17.67-8.58L18.84-8.58L18.84 0L17.67 0L17.67-8.58ZM20.11-1.92L20.11-2.77L21.19-2.77L21.19-2.16Q21.19-0.75 22.50-0.75L22.50-0.75Q23.86-0.75 23.86-2.25L23.86-2.25L23.86-8.58L25.03-8.58L25.03-2.30Q24.98 0.09 22.55 0.14L22.55 0.14Q20.25 0.09 20.11-1.92L20.11-1.92ZM27-8.58L28.17-8.58L28.17 0L27 0L27-8.58ZM35.81 0L34.97-2.48L31.50-2.48L30.61 0L29.44 0L32.67-8.58L33.98-8.58L37.08 0L35.81 0ZM33.23-7.31L31.88-3.52L34.55-3.52L33.28-7.31L33.23-7.31ZM38.95-1.03L44.25-1.03L44.25 0L37.50 0L37.50-0.94L42.75-7.59L37.88-7.59L37.88-8.58L44.25-8.58L44.25-7.59L38.95-1.03ZM46.55-5.06L51.05-5.06L51.05-8.58L52.22-8.58L52.22 0L51.05 0L51.05-3.98L46.55-3.98L46.55 0L45.38 0L45.38-8.58L46.55-8.58L46.55-5.06ZM59.67-3.19L59.67-8.58L60.84-8.58L60.84-3.05Q60.70 0.05 57.33 0.14L57.33 0.14Q54.19 0.05 54.05-2.86L54.05-2.86L54.05-8.58L55.22-8.58L55.22-3.19Q55.27-0.84 57.38-0.80L57.38-0.80Q59.67-0.84 59.67-3.19L59.67-3.19ZM68.30 0L67.45-2.48L63.98-2.48L63.09 0L61.92 0L65.16-8.58L66.47-8.58L69.56 0L68.30 0ZM65.72-7.31L64.36-3.52L67.03-3.52L65.77-7.31L65.72-7.31ZM72-8.58L76.31-1.64L76.31-8.58L77.44-8.58L77.44 0L76.13 0L71.77-6.94L71.72-6.94L71.72 0L70.59 0L70.59-8.58L72-8.58ZM85.64-3.61L83.02-3.61L83.02-4.59L86.77-4.59L86.77 0L86.02 0L85.73-1.08Q84.75 0.09 82.92 0.14L82.92 0.14Q81.19 0.14 80.25-0.75L80.25-0.75Q78.84-2.06 78.89-4.36L78.89-4.36Q79.22-8.63 82.97-8.81L82.97-8.81Q86.16-8.63 86.63-6L86.63-6L85.50-6Q85.03-7.78 82.92-7.83L82.92-7.83Q80.25-7.64 80.11-4.31L80.11-4.31Q80.11-0.75 82.97-0.75L82.97-0.75Q84-0.75 84.75-1.31L84.75-1.31Q85.69-2.06 85.64-3.61L85.64-3.61ZM94.08-7.59L91.17-7.59L91.17-8.58L98.11-8.58L98.11-7.59L95.20-7.59L95.20 0L94.08 0L94.08-7.59ZM105.94-4.27L105.94-4.27Q105.75-7.64 102.94-7.83L102.94-7.83Q100.08-7.69 99.94-4.27L99.94-4.27Q100.08-0.94 102.94-0.80L102.94-0.80Q105.75-0.98 105.94-4.27ZM107.11-4.27L107.11-4.27Q106.83 0 102.94 0.14L102.94 0.14Q99 0 98.72-4.27L98.72-4.27Q98.95-8.72 102.94-8.81L102.94-8.81Q106.83-8.67 107.11-4.27ZM109.88-8.58L114.19-1.64L114.19-8.58L115.31-8.58L115.31 0L114 0L109.64-6.94L109.59-6.94L109.59 0L108.47 0L108.47-8.58L109.88-8.58ZM123.52-3.61L120.89-3.61L120.89-4.59L124.64-4.59L124.64 0L123.89 0L123.61-1.08Q122.63 0.09 120.80 0.14L120.80 0.14Q119.06 0.14 118.13-0.75L118.13-0.75Q116.72-2.06 116.77-4.36L116.77-4.36Q117.09-8.63 120.84-8.81L120.84-8.81Q124.03-8.63 124.50-6L124.50-6L123.38-6Q122.91-7.78 120.80-7.83L120.80-7.83Q118.13-7.64 117.98-4.31L117.98-4.31Q117.98-0.75 120.84-0.75L120.84-0.75Q121.88-0.75 122.63-1.31L122.63-1.31Q123.56-2.06 123.52-3.61L123.52-3.61ZM130.55-3.70L127.73-3.70L127.73 0L126.56 0L126.56-8.58L130.55-8.58Q133.41-8.58 133.41-6.28L133.41-6.28Q133.41-4.88 132.19-4.22L132.19-4.22Q133.22-3.94 133.22-2.58L133.22-2.58L133.31-1.03Q133.27-0.38 133.73-0.19L133.73-0.19L133.73 0L132.28 0Q132.14-0.61 132.09-2.16L132.09-2.16Q132.14-3.70 130.55-3.70L130.55-3.70ZM130.64-7.64L127.73-7.64L127.73-4.69L130.45-4.69Q132.19-4.69 132.19-6.19L132.19-6.19Q132.19-7.64 130.64-7.64L130.64-7.64ZM140.72-3.19L140.72-8.58L141.89-8.58L141.89-3.05Q141.75 0.05 138.38 0.14L138.38 0.14Q135.23 0.05 135.09-2.86L135.09-2.86L135.09-8.58L136.27-8.58L136.27-3.19Q136.31-0.84 138.42-0.80L138.42-0.80Q140.72-0.84 140.72-3.19L140.72-3.19ZM145.08-8.58L149.39-1.64L149.39-8.58L150.52-8.58L150.52 0L149.20 0L144.84-6.94L144.80-6.94L144.80 0L143.67 0L143.67-8.58L145.08-8.58Z" transform="translate(-0.5602678571428572, 8.8125)"></path></g></g></g></g></g><defs v-gra="od"></defs></svg>